# xmcd
#
# Track frame offsets:
#	150
#	15442
#	27034
#	45802
#	58026
#	71448
#	81233
#	96495
#	108285
#	122082
#	133308
#	148142
#	160946
#	177866
#	196374
#
# Disc length: 2754 seconds
#
# Revision: 0
# Processed by: cddbd v1.5.2PL0 Copyright (c) Steve Scherf et al.
# Submitted via: audiograbber 1.83.01
#
DISCID=c90ac00f
DTITLE=Wöffler's Sliding Delta, Rainer - Keep It Clean
DYEAR=2002
DGENRE=Country Blues
TTITLE0=Keep It Clean
TTITLE1=Banty Rooster Blues
TTITLE2=Broke Down Engine
TTITLE3=Can't Be Satisfied
TTITLE4=Bill's Barbecue
TTITLE5=Willie's Rhythm
TTITLE6=Canned Heat
TTITLE7=Lord, Send Me An Angel
TTITLE8=Milk Cow Blues
TTITLE9=Mama Let Me Play With Your Yo - Yo
TTITLE10=She's Tuff
TTITLE11=Stomp Down Rider
TTITLE12=Mean Old Frisco
TTITLE13=Death Don't Have No Mercy In This Land
TTITLE14=In My Girlish Days
EXTD=
EXTT0=
EXTT1=
EXTT2=
EXTT3=
EXTT4=
EXTT5=
EXTT6=
EXTT7=
EXTT8=
EXTT9=
EXTT10=
EXTT11=
EXTT12=
EXTT13=
EXTT14=
PLAYORDER=
